<svg aria-hidden="true" style="position: absolute; width: 0; height: 0; overflow: hidden;" version="1.1" xmlns="http://www.w3.org/2000/svg" xmlns:xlink="http://www.w3.org/1999/xlink">
<defs>
<symbol id="icon-success" viewBox="0 0 36 32">
<path fill="#30b94d" style="fill: var(--color1, #30b94d)" d="M13.5 30.4l-13.5-15.2 4.5-5.068 9 10.132 18-20.264 4.5 5.068-22.5 25.332z"></path>
</symbol>
<symbol id="icon-pie-chart" viewBox="0 0 32 32">
<path fill="none" opacity="0.8" stroke="#f9f9f9" style="stroke: var(--color2, #f9f9f9)" stroke-linejoin="round" stroke-linecap="round" stroke-miterlimit="4" stroke-width="3.2" d="M22.933 18.667c0.37 0 0.555 0 0.704 0.080 0.13 0.076 0.232 0.188 0.293 0.322l0.002 0.004c0.066 0.157 0.048 0.323 0.016 0.658-0.56 5.414-5.097 9.599-10.612 9.599-5.89 0-10.666-4.775-10.666-10.666 0-5.514 4.185-10.051 9.552-10.608l0.046-0.004c0.336-0.032 0.502-0.050 0.659 0.016 0.13 0.056 0.256 0.171 0.325 0.294 0.082 0.149 0.082 0.334 0.082 0.704v8.533c0 0.373 0 0.56 0.074 0.704 0.064 0.125 0.166 0.226 0.291 0.29 0.144 0.074 0.33 0.074 0.704 0.074h8.531z"></path>
<path fill="none" stroke="#f9f9f9" style="stroke: var(--color2, #f9f9f9)" stroke-linejoin="round" stroke-linecap="round" stroke-miterlimit="4" stroke-width="3.2" d="M18.667 3.733c0-0.368 0-0.554 0.082-0.704 0.075-0.129 0.187-0.23 0.32-0.291l0.004-0.002c0.157-0.066 0.323-0.050 0.658-0.016 5.050 0.522 9.027 4.499 9.545 9.503l0.004 0.046c0.034 0.334 0.051 0.501-0.016 0.658-0.063 0.138-0.164 0.249-0.289 0.323l-0.003 0.002c-0.15 0.082-0.336 0.082-0.704 0.082h-8.534c-0.373 0-0.56 0-0.702-0.072-0.126-0.065-0.226-0.165-0.289-0.287l-0.002-0.004c-0.072-0.144-0.072-0.33-0.072-0.704v-8.531z"></path>
</symbol>
<symbol id="icon-logo" viewBox="0 0 79 32">
<path fill="#f9f9f9" style="fill: var(--color2, #f9f9f9)" d="M0 20.706v-20.706h24.264c3.3 0 6.513 1.050 9.173 3 1.578 1.165 2.832 2.68 3.663 4.433l0.030 0.071 2.807 6.033c1.195-2.886 2.555-5.365 4.146-7.672l-0.089 0.137 0.139-0.203c0.461-0.68 0.992-1.31 1.579-1.884l1.195-1.167c0.757-0.741 1.661-1.336 2.663-1.737l0.055-0.019 0.104-0.041c1.496-0.602 3.23-0.951 5.045-0.951 0.001 0 0.002 0 0.003 0h24.282v20.706h-79.059zM0 24.471h79.059v7.529h-79.059z"></path>
</symbol>
<symbol id="icon-log-in" viewBox="0 0 32 32">
<path fill="none" stroke="#e3e3e3" style="stroke: var(--color3, #e3e3e3)" stroke-linejoin="round" stroke-linecap="round" stroke-miterlimit="4" stroke-width="2.6667" d="M18.667 22.667l6.667-6.667-6.667-6.667M25.333 16h-18.667"></path>
</symbol>
<symbol id="icon-eye-off" viewBox="0 0 32 32">
<path fill="none" stroke="#f9f9f9" style="stroke: var(--color2, #f9f9f9)" stroke-linejoin="round" stroke-linecap="round" stroke-miterlimit="4" stroke-width="2.0800" d="M23.92 23.92c-2.175 1.672-4.923 2.696-7.908 2.747l-0.012 0c-9.333 0-14.667-10.667-14.667-10.667 1.713-3.152 3.978-5.791 6.689-7.877l0.058-0.043M13.2 5.653c0.833-0.203 1.788-0.32 2.771-0.32 0.010 0 0.020 0 0.030 0h-0.002c9.333 0 14.667 10.667 14.667 10.667-0.872 1.615-1.827 3.008-2.91 4.289l0.030-0.036M18.827 18.827c-0.731 0.774-1.764 1.256-2.91 1.256-2.209 0-4-1.791-4-4 0-1.146 0.482-2.179 1.254-2.909l0.002-0.002M1.333 1.333l29.334 29.334"></path>
</symbol>
<symbol id="icon-eye" viewBox="0 0 32 32">
<path fill="none" stroke="#f9f9f9" style="stroke: var(--color2, #f9f9f9)" stroke-linejoin="round" stroke-linecap="round" stroke-miterlimit="4" stroke-width="2.0800" d="M1.333 16s5.334-10.667 14.667-10.667 14.667 10.667 14.667 10.667-5.334 10.667-14.667 10.667-14.667-10.667-14.667-10.667z"></path>
<path fill="none" stroke="#f9f9f9" style="stroke: var(--color2, #f9f9f9)" stroke-linejoin="round" stroke-linecap="round" stroke-miterlimit="4" stroke-width="2.0800" d="M16 20c2.209 0 4-1.791 4-4s-1.791-4-4-4v0c-2.209 0-4 1.791-4 4s1.791 4 4 4v0z"></path>
</symbol>
<symbol id="icon-error" viewBox="0 0 32 32">
<path fill="#e90516" style="fill: var(--color4, #e90516)" d="M16 29v0c-7.18 0-13-5.82-13-13s5.82-13 13-13v0c7.18 0 13 5.82 13 13s-5.82 13-13 13zM16 32c8.837 0 16-7.163 16-16s-7.163-16-16-16v0c-8.837 0-16 7.163-16 16s7.163 16 16 16v0zM18 22c0 1.105-0.895 2-2 2s-2-0.895-2-2v0c0-1.105 0.895-2 2-2s2 0.895 2 2v0zM17.499 9.499c-0.038-0.799-0.695-1.432-1.499-1.432s-1.461 0.633-1.499 1.428l-0 0.003v7c0 0.828 0.671 1.499 1.499 1.499s1.499-0.671 1.499-1.499v0-6.997z"></path>
</symbol>
<symbol id="icon-attachment" viewBox="0 0 32 32">
<path fill="#f9f9f9" style="fill: var(--color2, #f9f9f9)" d="M28.1 18.9l-14.997-14.999c-2.501-2.603-6.603-2.603-9.202-0.101-1.203 1.165-1.95 2.795-1.95 4.6s0.747 3.435 1.949 4.598l0.002 0.002 0.1 0.101 2.8 2.9 1.401-1.401-2.901-2.898c-1.7-1.701-1.7-4.601 0-6.302 1.701-1.7 4.601-1.799 6.3-0.1l14.999 15.001c1.801 1.7 1.801 4.599 0.101 6.299-1.701 1.801-4.601 1.801-6.3 0.101l-7.5-7.5c-0.999-1.001-0.9-2.601 0-3.5 0.461-0.419 1.076-0.675 1.75-0.675s1.29 0.256 1.752 0.677l-0.002-0.002 4.1 4.1 1.401-1.399-4.201-4.201c-0.794-0.751-1.868-1.213-3.050-1.213-1.281 0-2.436 0.543-3.247 1.411l-0.002 0.003c-1.6 1.7-1.6 4.4 0 6.201l7.499 7.499c2.5 2.601 6.601 2.601 9.2 0.101 2.601-2.501 2.601-6.702 0-9.301 0 0.1 0 0 0 0z"></path>
</symbol>
<symbol id="icon-menu" viewBox="0 0 32 32">
<path d="M2 6h28v6h-28zM2 14h28v6h-28zM2 22h28v6h-28z"></path>
</symbol>
</defs>
</svg>
